<?xml version="1.0" standalone="no"?><!DOCTYPE svg PUBLIC "-//W3C//DTD SVG 1.1//EN" "http://www.w3.org/Graphics/SVG/1.1/DTD/svg11.dtd"><svg t="1584309195498" class="icon" viewBox="0 0 1280 1024" version="1.1" xmlns="http://www.w3.org/2000/svg" p-id="2011" xmlns:xlink="http://www.w3.org/1999/xlink" width="250" height="200"><defs><style type="text/css"></style></defs><path d="M1021.056 603.776c0-23.296-8.32-43.712-24.96-61.248L514.816 61.76C497.664 44.8 474.816 30.272 446.08 18.368 417.28 6.4 391.04 0.512 367.296 0.512H87.168c-23.296 0-43.52 8.512-60.544 25.6-17.088 17.024-25.6 37.248-25.6 60.608V366.72c0 23.808 5.888 50.048 17.792 78.784 11.904 28.736 26.432 51.392 43.456 68.032l481.408 482.048c16.64 16.64 36.8 24.96 60.608 24.96 23.36 0 43.776-8.32 61.248-24.96l330.624-331.264c16.64-16.64 24.96-36.8 24.96-60.608zM277.376 276.928c-16.832 16.832-37.12 25.216-60.928 25.216-23.744 0-44.096-8.384-60.928-25.216a83.008 83.008 0 0 1-25.216-60.928c0-23.808 8.384-44.16 25.216-60.928 16.832-16.832 37.12-25.28 60.928-25.28s44.16 8.448 60.928 25.28c16.832 16.832 25.28 37.12 25.28 60.928 0 23.744-8.448 44.096-25.28 60.928z" p-id="2012"></path><path d="M1254.72 542.528L773.312 61.824c-17.088-17.088-40-31.552-68.736-43.456-28.672-11.904-54.976-17.856-78.72-17.856H475.008c23.808 0 50.048 5.952 78.72 17.856 28.8 11.904 51.648 26.368 68.736 43.456l481.408 480.704c16.64 17.536 24.96 37.952 24.96 61.248 0 23.808-8.32 44.032-24.96 60.608l-316.48 316.48c13.504 13.888 25.408 24 35.712 30.272 10.304 6.272 23.552 9.472 39.68 9.472 23.424 0 43.84-8.32 61.312-24.96l330.624-331.264c16.64-16.64 24.96-36.8 24.96-60.608 0-23.296-8.32-43.712-24.96-61.248z" p-id="2013"></path></svg>